<svg width="180" height="180" viewBox="0 0 180 180" fill="none" xmlns="http://www.w3.org/2000/svg">
  <defs>
    <linearGradient id="bgGradient" x1="0%" y1="0%" x2="100%" y2="100%">
      <stop offset="0%" style="stop-color:#3b82f6;stop-opacity:1" />
      <stop offset="100%" style="stop-color:#a855f7;stop-opacity:1" />
    </linearGradient>
  </defs>

  <!-- Background with gradient border -->
  <rect x="6" y="6" width="168" height="168" rx="40" fill="none" stroke="url(#bgGradient)" stroke-width="12"/>
  
  <!-- Code icon centered and scaled -->
  <g transform="translate(52, 52) scale(3.2)">
    <path d="M1.293,11.293l4-4A1,1,0,1,1,6.707,8.707L3.414,12l3.293,3.293a1,1,0,1,1-1.414,1.414l-4-4A1,1,0,0,1,1.293,11.293Zm17.414-4a1,1,0,1,0-1.414,1.414L20.586,12l-3.293,3.293a1,1,0,1,0,1.414,1.414l4-4a1,1,0,0,0,0-1.414ZM13.039,4.726l-4,14a1,1,0,0,0,.686,1.236A1.053,1.053,0,0,0,10,20a1,1,0,0,0,.961-.726l4-14a1,1,0,1,0-1.922-.548Z" fill="white"/>
  </g>
</svg>
